<?xml version="1.0" encoding="UTF-8" standalone="no"?>
<!-- Created with Inkscape (http://www.inkscape.org/) -->
<svg xmlns:rdf="http://www.w3.org/1999/02/22-rdf-syntax-ns#" xmlns="http://www.w3.org/2000/svg" xmlns:cc="http://web.resource.org/cc/" xmlns:dc="http://purl.org/dc/elements/1.1/" xmlns:svg="http://www.w3.org/2000/svg" xmlns:inkscape="http://www.inkscape.org/namespaces/inkscape" xmlns:sodipodi="http://sodipodi.sourceforge.net/DTD/sodipodi-0.dtd" xmlns:ns1="http://sozi.baierouge.fr" xmlns:xlink="http://www.w3.org/1999/xlink" id="Layer_1" xml:space="preserve" version="1.0" viewBox="0 0 309.854 348.135" inkscape:version="0.91 r13725">
<g id="g5">
	<path id="path7" style="stroke:#000000;stroke-width:.036;stroke-miterlimit:10;fill-rule:evenodd" d="m24.635 211.91c0.036 7.35 1.08 15.52 3.42 24.66 2.304 9.22 5.616 20.06 10.224 30.03 4.536 9.9 9.972 19.58 16.704 28.65 6.588 8.93 14.076 17.21 22.86 24.55 8.748 7.17 17.928 13.68 29.337 18.44 11.31 4.6 25.85 8.39 38.24 9.54 12.34 1 23.68-0.29 35.13-3.06 11.31-2.96 22.43-7.71 32.4-13.97 9.83-6.48 19.01-15.77 26.28-23.55 7.24-7.7 11.7-14.76 16.71-22.53 4.89-8.1 9.1-16.06 12.63-24.55 3.46-8.5 6.08-17.86 8.17-25.6 2.09-7.81 3.32-14.4 4.11-20.45 1.98 1.01 4.43 1.44 7.49 1.44 3.13-0.11 7.3 0.11 10.58-1.73 3.1-1.9 5.9-4.86 7.85-9.54 1.76-4.93 3.2-12.02 3.06-18.75-0.26-6.81-2.27-15.81-4.11-21.17-1.91-5.44-4.28-8.35-7.12-10.55-3.07-2.23-6.99-2.34-10.26-2.41-3.32-0.14-6.34 0.43-9.22 1.73 1.8-6.66 1.8-14.94 0-25.27-1.88-10.52-5.36-23.84-10.91-36.508-5.69-12.672-17.03-30.096-22.5-39.06-5.51-9.108-5.8-10.188-10.44-14.76-4.79-4.608-10.19-9.144-17.86-12.492-7.88-3.42-17.35-6.084-28.4-7.452-11.23-1.404-23.87-2.304-37.47-0.756-13.72 1.368-29.88 4.032-43.35 9.54-13.571 5.508-25.631 14.004-36.467 23.544-10.908 9.504-20.124 21.456-27.648 33.084-7.416 11.556-12.888 26.78-16.704 35.82-3.96 8.86-5.4 12.38-6.84 17.39-1.512 4.89-2.196 9.07-2.052 11.95 0.144 2.81 1.008 4.36 2.736 4.79-4.644-0.36-8.352 0.68-11.268 2.73-2.916 2.09-4.536 5.48-6.12 9.87-1.764 4.35-3.528 9.36-3.744 15.69-0.252 6.23 0.144 16.13 2.7 21.5 2.448 5.11 8.532 8.02 12.276 9.57 3.6 1.48 6.84 1.41 9.576-0.36z"/>
	<path id="path9" style="fill-rule:evenodd;stroke:#000000;stroke-width:.036;stroke-miterlimit:10;fill:#e8cdba" d="m32.807 153.23c4.428-2.34 9-5.36 14.004-9.21 4.932-3.93 11.088-9 15.696-13.97 4.536-5.15 8.424-11.52 11.232-16.06 2.664-4.53 4.212-8.17 4.788-10.9 10.944 2.73 21.024 4.42 31.073 5.47 9.93 0.93 19.54 0.39 28.29 0.32 8.53-0.21 15.3 0.11 23.22-1.37 7.92-1.65 16.81-4.75 24.19-7.48 7.2-2.776 13.57-4.972 19.12-8.536 5.4-3.708 9.79-7.848 13.32-12.96 2.77 5.868 5.72 11.988 8.85 18.756 3.17 6.7 6.37 13.86 9.9 21.49 3.46 7.63 7.42 16.85 10.91 23.62 3.42 6.51 6.88 12.17 9.54 15.69 2.52 3.35 3.64 3.89 5.83 5.12 2.09 1.26 4.36 2.01 6.81 2.41-0.47 1.22-0.65 2.59-0.69 4.1-0.11 1.51 0.11 4.07 0.36 4.75 0.15 0.51 0.61-0.32 1.01-1.37 0.4-1.18 0.58-3.31 1.37-5.11 0.72-1.91 1.69-3.6 3.06-5.47 1.29-1.87 2.7-4.14 4.79-5.44 1.98-1.47 4.17-2.48 7.16-2.73 2.84-0.33 7.27-0.79 10.22 1.37 2.96 2.16 5.48 6.94 7.17 11.59 1.4 4.5 2.09 9.86 2.05 15.69-0.07 5.91-0.43 14.22-2.05 19.12-1.73 4.61-4.21 7.24-7.85 8.86-3.74 1.62-10.37 1.8-13.64 0.68-3.24-1.22-4.58-6.8-5.8-7.85-1.22-1.08-1.84-0.25-1.69 1.37 0.11 1.4 2.19 3.31 2.37 7.52 0.11 4.14-0.1 9.26-2.05 17.72-2.16 8.56-5.94 22.39-10.51 32.86-4.79 10.34-10.4 19.7-16.85 28.62-6.33 8.9-12.81 16.71-21.24 24.27-8.57 7.49-19.8 15.3-29.66 20.23-10.01 4.82-18.36 7.16-29.63 8.42-11.41 1.16-25.99 0.51-37.76-1.8-11.81-2.52-21.89-6.76-32.332-13.03-10.512-6.26-21.348-15.05-29.988-24.26-8.784-9.36-15.948-21.21-21.636-30.96-5.652-9.79-9.072-18.61-12.06-27-3.132-8.46-4.932-16.6-6.084-22.9-1.188-6.34-1.296-11.05-0.612-14.58 2.196-2.27 3.528-4.39 4.428-6.23 0.756-1.98 0.828-5.11 0.36-5.11-0.576-0.03-1.908 3.24-3.42 5.11-1.584 1.8-3.24 4.93-5.796 5.8-2.664 0.79-6.84 0.65-9.9-1.01-3.096-1.73-6.912-4.75-8.532-9.22-1.836-4.53-2.124-11.62-1.692-17.38 0.468-5.87 2.268-12.86 4.428-17.07 1.98-4.21 4.752-6.37 7.488-7.85 2.664-1.54 5.868-1.26 8.208-1.36 2.052-0.36 3.132-0.36 4.788 0 1.692 0.28 4.104 0.9 5.436 2.37 1.26 1.48 1.872 5.91 2.412 6.48 0.504 0.4 0.9-1.87 0.648-3.74-0.429-1.94-1.401-4.61-3.057-7.85z"/>
	<path id="path11" style="stroke:#000000;stroke-width:.036;stroke-miterlimit:10;fill-rule:evenodd" d="m14.735 179.51c0.396-2.08 1.188-5.22 2.376-7.16 1.152-2.09 3.168-3.82 4.788-4.79 1.584-1.11 3.276-2.05 4.788-1.01 1.44 1.01 3.816 6.05 4.068 7.49 0.144 1.19-2.268 1.51-3.06 0.69-0.864-0.87-1.224-4.29-2.052-5.11-1.008-0.87-2.016-0.98-3.42 0.36-1.44 1.22-4.248 4.82-5.112 7.48-0.936 2.67-0.72 6.05-0.324 8.21 0.324 2.05 1.116 3.46 2.376 4.07 1.152 0.36 4.14-1.4 4.788-1.01 0.432 0.36 0.108 3.28-1.368 3.74-1.548 0.47-5.832 0.18-7.164-1-1.26-1.37-1.08-4.9-1.008-6.84-0.144-1.98-0.18-3.17 0.324-5.12z"/>
	<path id="path13" style="stroke:#000000;stroke-width:.036;stroke-miterlimit:10;fill-rule:evenodd" d="m294.38 185.74c-0.14-2.23-0.57-5.22-1.29-7.42-0.97-2.19-2.6-4.28-4.03-5.43-1.48-1.3-2.96-2.56-4.58-1.69-1.8 0.83-4.68 5.36-5.14 6.8-0.44 1.33 1.94 1.66 2.95 1.12 0.9-0.65 1.73-4.18 2.77-4.76 1.04-0.71 2.02-0.71 3.31 0.83 1.19 1.48 3.39 5.37 3.96 8.17 0.4 2.7-0.21 6.12-0.86 8.18-0.69 2.01-1.77 3.2-2.95 3.7-1.34 0.26-3.93-2.08-4.58-1.72-0.72 0.32-0.5 3.2 0.8 3.92 1.36 0.65 5.54 1.08 7.23 0.04 1.59-1.19 1.48-4.65 2.02-6.63 0.43-1.94 0.47-3.09 0.39-5.11z"/>
	<path id="path15" style="stroke:#000000;stroke-width:.036;stroke-miterlimit:10;fill-rule:evenodd" d="m286.28 179.15c-0.14 0.69 1.52 3.53 2.06 5.48 0.36 1.87 0.39 5.29 0.68 5.79 0.32 0.36 1.33-1.4 1.37-3.06-0.04-1.76-0.72-5.44-1.37-6.84-0.76-1.51-2.59-2.01-2.74-1.37z"/>
	<path id="path17" style="stroke:#000000;stroke-width:.036;stroke-miterlimit:10;fill-rule:evenodd" d="m127.99 163.13c0 4.54 3.67 8.21 8.21 8.21 4.5 0 8.17-3.67 8.17-8.21 0-4.5-3.67-8.17-8.17-8.17-4.54 0-8.21 3.67-8.21 8.17z"/>
	<path id="path19" style="stroke:#000000;stroke-width:.036;stroke-miterlimit:10;fill-rule:evenodd" d="m161.07 163.49c0 4.5 3.68 8.18 8.21 8.18 4.54 0 8.18-3.68 8.18-8.18 0-4.53-3.64-8.2-8.18-8.2-4.53 0-8.21 3.67-8.21 8.2z"/>
	<path id="path21" style="stroke:#000000;stroke-width:.036;stroke-miterlimit:10;fill-rule:evenodd" d="m118.45 141.64c2.31-0.86 8.39-2.23 12.96-2.73 4.47-0.62 12.06-0.98 13.65-0.69 1.36 0.29-0.62 0.97-5.12 2.05-4.71 1.08-18.54 3.35-22.17 3.75-3.64 0.11-1.66-1.51 0.68-2.38z"/>
	<path id="path23" style="stroke:#000000;stroke-width:.036;stroke-miterlimit:10;fill-rule:evenodd" d="m171.26 140.35c2.56 0.03 8.54 0.93 13.07 2.16 4.36 0.97 11.59 3.56 12.96 4.32 1.12 0.75-0.9 0.72-5.51 0.03-4.71-0.83-18.54-3.49-22.03-4.53-3.45-1.12-1.01-2.06 1.51-1.98z"/>
	<path id="path25" style="stroke:#000000;stroke-width:.036;stroke-miterlimit:10;fill-rule:evenodd" d="m82.631 110.83c2.124 0.93 8.388 2.08 12.96 3.06 4.609 0.86 12.349 2.05 14.329 2.05 1.76-0.29-0.18-1.95-3.06-2.74-2.95-0.79-10.225-0.93-14.329-1.69-4.212-0.94-8.604-2.88-10.26-3.06-1.728-0.11-1.836 1.33 0.36 2.38z"/>
	<path id="path27" style="stroke:#000000;stroke-width:.036;stroke-miterlimit:10;fill-rule:evenodd" d="m219.43 98.874c0.83 3.096 3.03 8.636 4.79 11.916 1.62 3.24 5.18 8.06 5.44 7.52 0.18-0.68-2.34-7.27-4.07-11.59-1.87-4.53-5.47-13.318-6.48-14.686-1.05-1.26-0.62 3.564 0.32 6.84z"/>
	<path id="path29" style="stroke:#000000;stroke-width:.036;stroke-miterlimit:10;fill-rule:evenodd" d="m112.66 114.93c0 0.58 1.29 1.01 2.88 1.01 1.62 0 2.91-0.43 2.91-1.01s-1.29-1.04-2.91-1.04c-1.59 0-2.88 0.46-2.88 1.04z"/>
	<path id="path31" style="stroke:#000000;stroke-width:.036;stroke-miterlimit:10;fill-rule:evenodd" d="m231.17 120.91c-0.51 0.25-0.29 1.62 0.5 3.02 0.76 1.4 1.8 2.3 2.31 2.02 0.5-0.26 0.25-1.62-0.51-3.03-0.79-1.4-1.83-2.3-2.3-2.01z"/>
	<path id="path33" style="stroke:#000000;stroke-width:.036;stroke-miterlimit:10;fill-rule:evenodd" d="m97.643 244.93l3.057-1.37c1.05 6.33 2.92 12.2 5.48 17.75 2.48 5.58 5.5 10.83 9.9 15.33 4.39 4.32 9.64 7.85 16.34 10.59 6.7 2.66 15.08 6.01 23.22 5.47 7.96-0.65 17.6-4.72 24.23-8.89 6.59-4.32 11.12-10.26 15.01-16.03 3.71-5.72 5.69-12.99 7.49-18.07 1.76-5.14 2.73-9.36 3.06-12.63l4.1 0.36c-1.98 7.16-4.32 13.93-7.16 20.44-2.85 6.56-5.87 13.07-9.9 18.44-4.11 5.11-8.39 9.46-14.65 12.63-6.59 3.1-15.41 5.83-23.55 6.12-8.21 0.11-16.99-1.55-24.55-5.11-7.67-3.74-15.52-10.65-20.48-16.7-4.97-6.12-7.35-14.73-9.22-19.44-1.945-4.76-2.737-7.67-2.377-8.89z"/>
	<path id="path35" style="stroke:#000000;stroke-width:.036;stroke-miterlimit:10;fill-rule:evenodd" d="m94.583 244.6c2.088-1.19 3.852-1.62 6.117-2.41 2.27-0.86 6.95-3.24 7.53-2.7 0.39 0.4-2.31 3.6-4.79 5.44-2.59 1.73-8.065 4.35-10.585 5.11-2.628 0.61-5.436-0.15-5.112-1.01 0.36-1.01 4.536-3.31 6.84-4.43z"/>
	<path id="path37" style="stroke:#000000;stroke-width:.036;stroke-miterlimit:10;fill-rule:evenodd" d="m211.51 236.39c-2.45-0.64-4.1-0.86-6.52-1.08-2.44-0.46-7.63-1.69-7.92-1.15-0.39 0.58 2.89 3.06 5.8 4.4 2.88 1.15 8.68 2.7 11.41 2.84 2.77 0 5.11-1.19 4.79-2.05-0.5-0.91-5.29-2.31-7.56-2.96z"/>
	<path id="path39" style="fill-rule:evenodd;stroke:#000000;stroke-width:.036;stroke-miterlimit:10;fill:#78605c" d="m76.511 102.15c-1.404 4.21-3.492 8.24-6.12 12.49-2.772 4.21-5.4 7.78-9.828 12.49-4.608 4.72-11.808 10.98-17.028 15.2-5.256 4.14-10.512 7.66-14.112 9.03-3.708 1.08-6.336 0.18-7.452-1.87-1.152-2.12-0.468-5.26 0.792-10.37 1.08-5.18 2.844-11.73 6.408-20.23 3.528-8.64 9-21.06 14.904-30.852 5.724-9.864 12.24-19.044 19.944-27.396 7.74-8.496 16.38-16.272 26.064-22.356 9.54-6.084 19.587-10.224 31.107-13.536 11.45-3.348 26.35-5.292 37.51-6.12 11.05-0.864 19.33 0 28.73 1.332 9.32 1.296 18.61 2.448 26.89 6.372 8.1 3.78 16.2 10.8 21.82 16.74 5.47 5.94 7.38 12.024 11.41 18.648 3.99 6.624 8.96 14.328 12.52 20.736 3.39 6.192 5.3 9.504 7.96 16.74 2.63 7.132 6.05 18.612 7.74 26.102 1.51 7.38 1.8 13.17 1.84 18.36 0.1 5.07-0.47 9.14-1.59 12.2-1.26 3.06-3.34 5.8-5.87 6.12-2.66 0.25-5.9-0.47-9.57-4.5-3.71-4.14-7.96-11.81-12.2-19.94-4.29-8.28-8.68-18.65-13.32-29.02-4.72-10.402-9.69-21.13-14.91-32.722 2.2-3.276 3.71-7.488 4.54-12.492 0.72-5.256 0.43-15.408 0.25-17.82s-0.94 1.224-1.3 3.96c-0.46 2.736-0.18 7.74-1.36 12.528-1.3 4.68-2.6 10.656-6.12 15.444-3.6 4.716-7.96 8.64-15.41 12.744-7.63 4.068-20.16 8.676-29.81 11.448-9.76 2.52-17.82 3.56-27.94 4.25-10.18 0.61-23.04 0.25-32.43-0.25-9.47-0.44-17.319-1.19-23.691-2.67-6.48-1.62-10.296-4.534-14.508-7.09-4.32-2.772-9.396-8.316-10.764-8.856s1.44 4.104 2.736 5.76c1.224 1.512 2.988 2.268 5.004 3.816 2.052 1.512 4.392 3.42 7.164 5.58z"/>
	<path id="path41" style="stroke:#000000;stroke-width:.036;stroke-miterlimit:10;fill-rule:evenodd" d="m40.943 137.18c0.936-1.55 6.408-4.97 9.072-7.2 2.52-2.27 3.672-3.39 6.372-6.12 2.556-2.88 8.028-9.87 9.324-10.66 1.152-0.86-0.072 3.13-1.872 5.87-2.016 2.63-5.724 7.06-9.036 10.37-3.276 3.35-8.136 7.88-10.404 9.32-2.412 1.23-4.392-0.14-3.456-1.58z"/>
	<path id="path43" style="stroke:#000000;stroke-width:.036;stroke-miterlimit:10;fill-rule:evenodd" d="m35.327 142.43c0.252 0.4 1.332 0.11 2.412-0.57 1.08-0.72 1.764-1.62 1.512-1.98-0.252-0.4-1.332-0.11-2.412 0.57-1.08 0.72-1.764 1.62-1.512 1.98z"/>
	<path id="path45" style="stroke:#000000;stroke-width:.036;stroke-miterlimit:10;fill-rule:evenodd" d="m75.467 89.442c2.016 1.368 7.884 4.968 12.744 6.912 4.716 1.872 9.576 3.528 15.699 4.536 6.12 0.94 17.67 1.12 20.48 1.08 2.59-0.14-1.37-1.37-4.79-1.87-3.56-0.506-11.19-0.578-15.94-1.334-4.829-0.9-9.185-2.52-12.785-3.744-3.636-1.296-6.696-2.808-9.036-3.96-2.484-1.332-4.536-3.132-5.58-3.456-1.188-0.288-2.7 0.324-0.792 1.836z"/>
	<path id="path47" style="stroke:#000000;stroke-width:.036;stroke-miterlimit:10;fill-rule:evenodd" d="m97.787 92.106c0.324 1.116 2.413 5.004 3.743 6.66 1.19 1.544 3.13 3.164 3.46 2.914 0.14-0.32-1.26-2.842-2.13-4.498-0.9-1.692-2.16-4.536-2.949-5.328-0.936-0.864-2.34-0.972-2.124 0.252z"/>
	<path id="path49" style="stroke:#000000;stroke-width:.036;stroke-miterlimit:10;fill-rule:evenodd" d="m92.459 93.69c0.036 0.72 1.08 2.7 2.16 3.996 0.972 1.116 3.096 3.204 3.456 2.954 0.252-0.29-1.656-3.422-2.124-4.538-0.684-1.296-0.756-2.232-1.332-2.664-0.648-0.468-2.16-0.432-2.16 0.252z"/>
	<path id="path51" style="stroke:#000000;stroke-width:.036;stroke-miterlimit:10;fill-rule:evenodd" d="m155.24 96.57c4.32-1.98 17.07-6.12 24.48-9.072 7.35-3.132 13.68-6.048 19.15-9.036 5.26-3.096 9.47-6.3 12.78-8.784 3.24-2.484 5.4-4.86 6.91-5.58 1.48-0.648 2.71-0.108 1.88 1.332-1.05 1.332-4.36 3.96-7.46 6.372-3.13 2.304-6.44 4.608-10.9 7.452-4.72 2.664-10.59 6.336-16.49 9.072-6.12 2.628-13.54 5.292-18.9 7.164-5.36 1.836-10.55 3.456-12.49 3.744-1.98 0.108-3.2-0.648 1.04-2.664z"/>
	<path id="path53" style="stroke:#000000;stroke-width:.036;stroke-miterlimit:10;fill-rule:evenodd" d="m156.86 52.146c3.32-0.828 11.95-1.368 19.41-1.62 7.52-0.18 17.67-0.36 25.02 0.288 7.16 0.468 14.72 1.908 17.82 2.916 2.99 0.936 2.05 2.736 0.25 2.916-1.95 0.036-5.94-1.872-11.16-2.376-5.29-0.612-13.25-1.116-19.69-1.08-6.55-0.072-13.18 0.468-18.61 0.792-5.4 0.18-11.45 1.044-13.58 0.792-2.23-0.36-2.84-1.98 0.54-2.628z"/>
	<path id="path55" style="stroke:#000000;stroke-width:.036;stroke-miterlimit:10;fill-rule:evenodd" d="m164.31 27.918c3.82 1.368 19.73 3.276 28.73 6.408 8.86 3.132 19.66 10.26 24.19 12.204 4.32 1.729 3.68-0.324 2.38-1.584-1.44-1.368-5.54-3.78-10.37-6.12-4.96-2.448-12.09-6.12-18.61-8.244-6.55-2.196-15.51-4.392-19.94-4.788-4.54-0.54-10.05 0.684-6.38 2.124z"/>
	<path id="path57" style="stroke:#000000;stroke-width:.036;stroke-miterlimit:10;fill-rule:evenodd" d="m227.89 53.19c1.44 2.124 7.71 8.064 10.87 11.988 2.96 3.816 5.37 9.072 6.95 10.908 1.59 1.692 3.02 1.512 2.38-0.54-0.83-2.196-4.32-8.136-7.17-11.988-3.06-3.96-8.24-9.396-10.4-11.16-2.23-1.764-4.03-1.368-2.63 0.792z"/>
	<path id="path59" style="stroke:#000000;stroke-width:.036;stroke-miterlimit:10;fill-rule:evenodd" d="m228.68 68.346c1.12 1.044 5.91 7.668 8.25 12.24 2.23 4.5 4.28 11.268 5.33 14.904 0.82 3.492 0.36 5.29 0.25 6.37-0.22 0.94-0.25 1.87-1.08-0.25-0.97-2.232-2.02-7.92-3.96-12.492-2.02-4.68-5.98-11.412-7.45-14.904-1.48-3.492-2.53-7.02-1.34-5.868z"/>
	<path id="path61" style="stroke:#000000;stroke-width:.036;stroke-miterlimit:10;fill-rule:evenodd" d="m253.16 140.71c0.87 2.05 4.65 8.64 6.91 11.44 2.13 2.7 4.54 4.43 6.13 5.04 1.43 0.47 2.87-0.9 2.91-1.33-0.14-0.32-1.76-0.07-2.91-0.79-1.19-0.9-2.71-2.41-4-4.25-1.44-1.94-3.13-5.07-4.25-6.91-1.15-1.91-2.27-3.78-2.95-4.25-0.9-0.65-2.66-1.04-1.84 1.05z"/>
	<path id="path63" style="stroke:#000000;stroke-width:.036;stroke-miterlimit:10;fill-rule:evenodd" d="m270.48 155.54c0.32 0.32 1.33-0.11 2.27-1.01 0.93-0.86 1.44-1.87 1.15-2.2-0.32-0.32-1.33 0.11-2.27 1.01-0.97 0.87-1.48 1.87-1.15 2.2z"/>
	<path id="path65" style="stroke:#000000;stroke-width:.036;stroke-miterlimit:10;fill-rule:evenodd" d="m217.23 35.586c0.22-2.664 2.13-9 2.67-13.32 0.22-4.5-0.94-10.368-0.54-12.744 0.29-2.448 2.23-2.664 2.92-1.62 0.64 1.044 1 4.032 1.08 7.704-0.08 3.636-0.44 9.684-1.08 13.572-0.76 3.672-2.42 7.668-3.17 8.784-0.87 1.008-2.09 0.216-1.88-2.376z"/>
	<path id="path67" style="stroke:#000000;stroke-width:.036;stroke-miterlimit:10;fill-rule:evenodd" d="m223.9 37.71c1.83-2.664 7.95-7.452 11.41-11.448 3.24-4.14 6.05-8.172 8.28-12.492 2.05-4.428 3.45-11.232 4.79-13.032 1.26-1.656 3.7-0.36 3.16 2.916-0.61 3.096-3.7 10.404-6.66 15.696-3.02 5.292-7.84 11.592-11.16 15.408-3.42 3.672-7.45 5.76-9.03 6.408-1.8 0.396-2.49-0.936-0.79-3.456z"/>
	<path id="path69" style="stroke:#000000;stroke-width:.036;stroke-miterlimit:10;fill-rule:evenodd" d="m232.14 42.75c1.58-1.62 4.97-5.4 9.04-6.912 3.92-1.512 12.31-2.088 14.61-1.872 2.12 0.18 0.76 2.448-1.33 3.204-2.31 0.648-8.1-0.288-11.41 1.08-3.24 1.296-5.87 5.724-7.74 6.912-1.87 1.116-3.03 0-3.46-0.288-0.61-0.36-1.29-0.792 0.29-2.124z"/>
	<path id="path71" style="stroke:#000000;stroke-width:.036;stroke-miterlimit:10;fill-rule:evenodd" d="m107.51 331.32c1.83 1.48 6.55 4 11.09 5.77 4.35 1.69 10.44 2.98 15.19 4.03 4.68 0.9 10.98 1.47 12.78 1.33 1.65-0.32-0.04-1.87-2.7-2.7-2.88-0.79-9.15-0.86-13.79-2.02-4.68-1.26-10.12-3.49-13.82-5.04-3.75-1.58-7.06-3.85-8.43-4.03-1.55-0.32-2.12 1.26-0.32 2.66z"/>
	<path id="path73" style="stroke:#000000;stroke-width:.036;stroke-miterlimit:10;fill-rule:evenodd" d="m150.67 340.47c-0.54 0.14-0.97 0.9-0.75 1.44 0.1 0.5 1.18 1.19 1.72 1.22 0.4-0.14 1.05-1.58 0.98-1.94-0.26-0.54-1.55-0.83-1.95-0.72z"/>
	<path id="path75" style="stroke:#000000;stroke-width:.036;stroke-miterlimit:10;fill-rule:evenodd" d="m102.47 324.95c-0.47 0.11-0.94 0.98-0.72 1.48 0.11 0.5 1.22 1.19 1.69 1.22 0.4-0.14 1.04-1.58 0.97-1.94-0.25-0.61-1.55-0.86-1.94-0.76z"/>
</g>
<metadata><rdf:RDF><cc:Work><dc:format>image/svg+xml</dc:format><dc:type rdf:resource="http://purl.org/dc/dcmitype/StillImage"/><cc:license rdf:resource="http://creativecommons.org/licenses/publicdomain/"/><dc:publisher><cc:Agent rdf:about="http://openclipart.org/"><dc:title>Openclipart</dc:title></cc:Agent></dc:publisher><dc:title>Man Face Cartoon</dc:title><dc:date>2006-10-06T08:57:26</dc:date><dc:description>Uploaded by "World Label" for conversion to SVG and publication on OCAL.</dc:description><dc:source>https://openclipart.org/detail/386/man-face-cartoon-by-gerald_g</dc:source><dc:creator><cc:Agent><dc:title>Gerald_G</dc:title></cc:Agent></dc:creator><dc:subject><rdf:Bag><rdf:li>cartoon</rdf:li><rdf:li>externalsource</rdf:li><rdf:li>face</rdf:li><rdf:li>man</rdf:li><rdf:li>people</rdf:li><rdf:li>remix</rdf:li><rdf:li>worldlabel</rdf:li></rdf:Bag></dc:subject></cc:Work><cc:License rdf:about="http://creativecommons.org/licenses/publicdomain/"><cc:permits rdf:resource="http://creativecommons.org/ns#Reproduction"/><cc:permits rdf:resource="http://creativecommons.org/ns#Distribution"/><cc:permits rdf:resource="http://creativecommons.org/ns#DerivativeWorks"/></cc:License></rdf:RDF></metadata></svg>
